<mxfile host="Electron" modified="2023-05-28T20:24:40.037Z" agent="Mozilla/5.0 (Macintosh; Intel Mac OS X 10_15_7) AppleWebKit/537.36 (KHTML, like Gecko) draw.io/21.2.8 Chrome/112.0.5615.165 Electron/24.2.0 Safari/537.36" etag="YFTd2YsjAu1p-EEHk8dA" version="21.2.8" type="device">
  <diagram name="Page-1" id="wI5Tsmms4aTkwTs8upVy">
    <mxGraphModel dx="1061" dy="744" grid="1" gridSize="10" guides="1" tooltips="1" connect="1" arrows="1" fold="1" page="1" pageScale="1" pageWidth="827" pageHeight="1900" math="0" shadow="0">
      <root>
        <mxCell id="0" />
        <mxCell id="1" parent="0" />
        <mxCell id="Mur95mty8Bg2gndT3K6Y-2" value="&lt;span style=&quot;border: 0px solid rgb(217, 217, 227); box-sizing: border-box; --tw-border-spacing-x: 0; --tw-border-spacing-y: 0; --tw-translate-x: 0; --tw-translate-y: 0; --tw-rotate: 0; --tw-skew-x: 0; --tw-skew-y: 0; --tw-scale-x: 1; --tw-scale-y: 1; --tw-pan-x: ; --tw-pan-y: ; --tw-pinch-zoom: ; --tw-scroll-snap-strictness: proximity; --tw-gradient-from-position: ; --tw-gradient-via-position: ; --tw-gradient-to-position: ; --tw-ordinal: ; --tw-slashed-zero: ; --tw-numeric-figure: ; --tw-numeric-spacing: ; --tw-numeric-fraction: ; --tw-ring-inset: ; --tw-ring-offset-width: 0px; --tw-ring-offset-color: #fff; --tw-ring-color: rgba(69,89,164,0.5); --tw-ring-offset-shadow: 0 0 transparent; --tw-ring-shadow: 0 0 transparent; --tw-shadow: 0 0 transparent; --tw-shadow-colored: 0 0 transparent; --tw-blur: ; --tw-brightness: ; --tw-contrast: ; --tw-grayscale: ; --tw-hue-rotate: ; --tw-invert: ; --tw-saturate: ; --tw-sepia: ; --tw-drop-shadow: ; --tw-backdrop-blur: ; --tw-backdrop-brightness: ; --tw-backdrop-contrast: ; --tw-backdrop-grayscale: ; --tw-backdrop-hue-rotate: ; --tw-backdrop-invert: ; --tw-backdrop-opacity: ; --tw-backdrop-saturate: ; --tw-backdrop-sepia: ; color: rgb(46, 149, 211); font-family: &amp;quot;SÃ¶hne Mono&amp;quot;, Monaco, &amp;quot;Andale Mono&amp;quot;, &amp;quot;Ubuntu Mono&amp;quot;, monospace; font-size: 14px; font-style: normal; font-variant-caps: normal; font-weight: 400; letter-spacing: normal; text-align: left; text-indent: 0px; text-transform: none; word-spacing: 0px; -webkit-text-stroke-width: 0px; text-decoration: none;&quot; class=&quot;hljs-keyword&quot;&gt;Set values:&lt;br&gt;green - 50s&lt;br&gt;amber - 10s&lt;br&gt;red - x&lt;br&gt;&lt;/span&gt;" style="rounded=1;whiteSpace=wrap;html=1;" parent="1" vertex="1">
          <mxGeometry x="370" y="125" width="140" height="80" as="geometry" />
        </mxCell>
        <mxCell id="Mur95mty8Bg2gndT3K6Y-5" value="Reduce remaining wait time of red to 10s" style="rounded=1;whiteSpace=wrap;html=1;" parent="1" vertex="1">
          <mxGeometry x="371" y="397" width="140" height="53" as="geometry" />
        </mxCell>
        <mxCell id="Mur95mty8Bg2gndT3K6Y-6" value="Check car sensor detects 5+ cars waiting." style="rounded=1;whiteSpace=wrap;html=1;" parent="1" vertex="1">
          <mxGeometry x="371" y="502" width="140" height="52" as="geometry" />
        </mxCell>
        <mxCell id="Mur95mty8Bg2gndT3K6Y-7" value="Reduce remaining wait time of red to 10s." style="rounded=1;whiteSpace=wrap;html=1;" parent="1" vertex="1">
          <mxGeometry x="371" y="608" width="140" height="49" as="geometry" />
        </mxCell>
        <mxCell id="Mur95mty8Bg2gndT3K6Y-8" value="Check if &#39;Request-to-walk&#39;&amp;nbsp; &lt;br&gt;button is pressed" style="rhombus;whiteSpace=wrap;html=1;" parent="1" vertex="1">
          <mxGeometry x="345" y="252" width="180" height="80" as="geometry" />
        </mxCell>
        <mxCell id="Mur95mty8Bg2gndT3K6Y-9" value="Check current state is&amp;nbsp;&lt;br&gt;green" style="rhombus;whiteSpace=wrap;html=1;" parent="1" vertex="1">
          <mxGeometry x="357.5" y="710" width="155" height="80" as="geometry" />
        </mxCell>
        <mxCell id="Mur95mty8Bg2gndT3K6Y-10" value="&lt;div style=&quot;box-sizing: inherit; text-align: start; caret-color: rgb(34, 34, 34); color: rgb(34, 34, 34); font-family: &amp;quot;Aspira Webfont&amp;quot;, Helvetica, Arial, sans-serif; font-style: normal; font-variant-caps: normal; font-weight: 400; letter-spacing: normal; text-indent: 0px; text-transform: none; word-spacing: 0px; -webkit-text-stroke-width: 0px; text-decoration: none;&quot; class=&quot;sc-1aslxm9-2 egzodd&quot;&gt;&lt;font style=&quot;font-size: 10px;&quot;&gt;The red light duration is equal to the remaining time in the cycle.&lt;br&gt;Given durations: Green = 50 sec, Amber = 5 sec&lt;br&gt;We are asked to determine the red light duration, considering the durations of green and amber.&lt;/font&gt;&lt;/div&gt;&lt;div style=&quot;box-sizing: inherit; text-align: start; caret-color: rgb(34, 34, 34); color: rgb(34, 34, 34); font-family: &amp;quot;Aspira Webfont&amp;quot;, Helvetica, Arial, sans-serif; font-style: normal; font-variant-caps: normal; font-weight: 400; letter-spacing: normal; text-indent: 0px; text-transform: none; word-spacing: 0px; -webkit-text-stroke-width: 0px; text-decoration: none;&quot; class=&quot;sc-1aslxm9-2 egzodd&quot;&gt;&lt;font style=&quot;font-size: 10px;&quot;&gt;When the request to walk button is pressed or the car sensor detects 5 or more waiting cars, the remaining wait time of the red-light state is reduced to 10 seconds. Therefore, the maximum duration for the red light in this logic3 is the difference between the total cycle time and the durations of green and amber (to allow for the reduction to 10 seconds):&lt;/font&gt;&lt;/div&gt;&lt;div style=&quot;box-sizing: inherit; text-align: start; caret-color: rgb(34, 34, 34); color: rgb(34, 34, 34); font-family: &amp;quot;Aspira Webfont&amp;quot;, Helvetica, Arial, sans-serif; font-style: normal; font-variant-caps: normal; font-weight: 400; letter-spacing: normal; text-indent: 0px; text-transform: none; word-spacing: 0px; -webkit-text-stroke-width: 0px; text-decoration: none;&quot; class=&quot;sc-1aslxm9-2 egzodd&quot;&gt;&lt;font style=&quot;font-size: 10px;&quot;&gt;&lt;br&gt;Total cycle time = Green + Amber + Red&lt;br&gt;Total cycle time = 50 sec + 5 sec + Red&lt;/font&gt;&lt;/div&gt;&lt;div style=&quot;box-sizing: inherit; text-align: start; caret-color: rgb(34, 34, 34); color: rgb(34, 34, 34); font-family: &amp;quot;Aspira Webfont&amp;quot;, Helvetica, Arial, sans-serif; font-style: normal; font-variant-caps: normal; font-weight: 400; letter-spacing: normal; text-indent: 0px; text-transform: none; word-spacing: 0px; -webkit-text-stroke-width: 0px; text-decoration: none;&quot; class=&quot;sc-1aslxm9-2 egzodd&quot;&gt;&lt;span style=&quot;font-size: 10px;&quot;&gt;60 = 50 + 5 + Red&lt;/span&gt;&lt;/div&gt;&lt;div style=&quot;box-sizing: inherit; text-align: start; caret-color: rgb(34, 34, 34); color: rgb(34, 34, 34); font-family: &amp;quot;Aspira Webfont&amp;quot;, Helvetica, Arial, sans-serif; font-style: normal; font-variant-caps: normal; font-weight: 400; letter-spacing: normal; text-indent: 0px; text-transform: none; word-spacing: 0px; -webkit-text-stroke-width: 0px; text-decoration: none;&quot; class=&quot;sc-1aslxm9-2 egzodd&quot;&gt;&lt;span style=&quot;font-size: 10px;&quot;&gt;Red = 5&lt;/span&gt;&lt;/div&gt;&lt;div style=&quot;box-sizing: inherit; text-align: start; caret-color: rgb(34, 34, 34); color: rgb(34, 34, 34); font-family: &amp;quot;Aspira Webfont&amp;quot;, Helvetica, Arial, sans-serif; font-style: normal; font-variant-caps: normal; font-weight: 400; letter-spacing: normal; text-indent: 0px; text-transform: none; word-spacing: 0px; -webkit-text-stroke-width: 0px; text-decoration: none;&quot; class=&quot;sc-1aslxm9-2 egzodd&quot;&gt;&lt;font style=&quot;font-size: 10px;&quot;&gt;Maximum Red = Total cycle time - (Green + Amber)&lt;br&gt;Maximum Red = (50 sec + 5 sec + Red) - (50 sec + 5 sec)&lt;/font&gt;&lt;/div&gt;&lt;div style=&quot;box-sizing: inherit; text-align: start; caret-color: rgb(34, 34, 34); color: rgb(34, 34, 34); font-family: &amp;quot;Aspira Webfont&amp;quot;, Helvetica, Arial, sans-serif; font-style: normal; font-variant-caps: normal; font-weight: 400; letter-spacing: normal; text-indent: 0px; text-transform: none; word-spacing: 0px; -webkit-text-stroke-width: 0px; text-decoration: none;&quot; class=&quot;sc-1aslxm9-2 egzodd&quot;&gt;&lt;font style=&quot;font-size: 10px;&quot;&gt;Maximum Red = (50 + 5 + 5) - (50 + 5)&lt;/font&gt;&lt;/div&gt;&lt;div style=&quot;box-sizing: inherit; text-align: start; caret-color: rgb(34, 34, 34); color: rgb(34, 34, 34); font-family: &amp;quot;Aspira Webfont&amp;quot;, Helvetica, Arial, sans-serif; font-style: normal; font-variant-caps: normal; font-weight: 400; letter-spacing: normal; text-indent: 0px; text-transform: none; word-spacing: 0px; -webkit-text-stroke-width: 0px; text-decoration: none;&quot; class=&quot;sc-1aslxm9-2 egzodd&quot;&gt;&lt;font style=&quot;font-size: 10px;&quot;&gt;Maximum Red = 5&lt;br&gt;Maximum Red = Red&lt;/font&gt;&lt;/div&gt;&lt;div style=&quot;box-sizing: inherit; text-align: start; caret-color: rgb(34, 34, 34); color: rgb(34, 34, 34); font-family: &amp;quot;Aspira Webfont&amp;quot;, Helvetica, Arial, sans-serif; font-style: normal; font-variant-caps: normal; font-weight: 400; letter-spacing: normal; text-indent: 0px; text-transform: none; word-spacing: 0px; -webkit-text-stroke-width: 0px; text-decoration: none;&quot; class=&quot;sc-1aslxm9-2 egzodd&quot;&gt;&lt;font style=&quot;font-size: 10px;&quot;&gt;&lt;br style=&quot;box-sizing: inherit;&quot; class=&quot;sc-1aslxm9-1 iKDQuW&quot;&gt;&lt;/font&gt;&lt;/div&gt;&lt;div style=&quot;box-sizing: inherit; text-align: start; caret-color: rgb(34, 34, 34); color: rgb(34, 34, 34); font-family: &amp;quot;Aspira Webfont&amp;quot;, Helvetica, Arial, sans-serif; font-style: normal; font-variant-caps: normal; font-weight: 400; letter-spacing: normal; text-indent: 0px; text-transform: none; word-spacing: 0px; -webkit-text-stroke-width: 0px; text-decoration: none;&quot; class=&quot;sc-1aslxm9-2 egzodd&quot;&gt;&lt;font style=&quot;font-size: 10px;&quot;&gt;In this case, the maximum red light duration is equal to the remaining time in the cycle.&amp;nbsp;&lt;/font&gt;&lt;/div&gt;" style="text;whiteSpace=wrap;html=1;" parent="1" vertex="1">
          <mxGeometry x="20" y="80" width="310" height="340" as="geometry" />
        </mxCell>
        <mxCell id="hedq3-TFcKwDfqbu5vDN-2" value="transition to amber state" style="rounded=1;whiteSpace=wrap;html=1;" vertex="1" parent="1">
          <mxGeometry x="375" y="940" width="130" height="48" as="geometry" />
        </mxCell>
        <mxCell id="hedq3-TFcKwDfqbu5vDN-5" value="Transition to red state" style="rounded=1;whiteSpace=wrap;html=1;" vertex="1" parent="1">
          <mxGeometry x="381.5" y="1240" width="120" height="48" as="geometry" />
        </mxCell>
        <mxCell id="hedq3-TFcKwDfqbu5vDN-8" value="Continue in red state for determined red duration" style="rounded=1;whiteSpace=wrap;html=1;" vertex="1" parent="1">
          <mxGeometry x="387.5" y="1542" width="120" height="58" as="geometry" />
        </mxCell>
        <mxCell id="hedq3-TFcKwDfqbu5vDN-11" value="End&amp;nbsp;" style="shape=process;whiteSpace=wrap;html=1;backgroundOutline=1;" vertex="1" parent="1">
          <mxGeometry x="360" y="1762" width="175" height="48" as="geometry" />
        </mxCell>
        <mxCell id="hedq3-TFcKwDfqbu5vDN-52" style="edgeStyle=orthogonalEdgeStyle;rounded=0;orthogonalLoop=1;jettySize=auto;html=1;" edge="1" parent="1" source="hedq3-TFcKwDfqbu5vDN-12">
          <mxGeometry relative="1" as="geometry">
            <mxPoint x="510" y="40" as="targetPoint" />
            <Array as="points">
              <mxPoint x="591" y="1682" />
              <mxPoint x="591" y="40" />
            </Array>
          </mxGeometry>
        </mxCell>
        <mxCell id="hedq3-TFcKwDfqbu5vDN-12" value="LOOP.&amp;nbsp; &amp;nbsp; &amp;nbsp;&amp;nbsp;" style="triangle;whiteSpace=wrap;html=1;" vertex="1" parent="1">
          <mxGeometry x="401" y="1642" width="110" height="80" as="geometry" />
        </mxCell>
        <mxCell id="hedq3-TFcKwDfqbu5vDN-13" value="START.&amp;nbsp; &amp;nbsp; &amp;nbsp; &amp;nbsp; &amp;nbsp; &amp;nbsp; &amp;nbsp;" style="triangle;whiteSpace=wrap;html=1;" vertex="1" parent="1">
          <mxGeometry x="395" y="10" width="100" height="70" as="geometry" />
        </mxCell>
        <mxCell id="hedq3-TFcKwDfqbu5vDN-14" value="" style="endArrow=classic;html=1;rounded=0;exitX=0.411;exitY=0.836;exitDx=0;exitDy=0;exitPerimeter=0;" edge="1" parent="1">
          <mxGeometry width="50" height="50" relative="1" as="geometry">
            <mxPoint x="436.10000000000014" y="64.88" as="sourcePoint" />
            <mxPoint x="436" y="118" as="targetPoint" />
          </mxGeometry>
        </mxCell>
        <mxCell id="hedq3-TFcKwDfqbu5vDN-15" value="" style="endArrow=classic;html=1;rounded=0;" edge="1" parent="1">
          <mxGeometry width="50" height="50" relative="1" as="geometry">
            <mxPoint x="435" y="206" as="sourcePoint" />
            <mxPoint x="435" y="246" as="targetPoint" />
          </mxGeometry>
        </mxCell>
        <mxCell id="hedq3-TFcKwDfqbu5vDN-16" value="" style="endArrow=classic;html=1;rounded=0;" edge="1" parent="1">
          <mxGeometry width="50" height="50" relative="1" as="geometry">
            <mxPoint x="434.67" y="333" as="sourcePoint" />
            <mxPoint x="435" y="392" as="targetPoint" />
          </mxGeometry>
        </mxCell>
        <mxCell id="hedq3-TFcKwDfqbu5vDN-17" value="&lt;h1&gt;&lt;font style=&quot;font-size: 10px;&quot;&gt;YES&lt;/font&gt;&lt;/h1&gt;" style="text;html=1;strokeColor=none;fillColor=none;spacing=5;spacingTop=-20;whiteSpace=wrap;overflow=hidden;rounded=0;" vertex="1" parent="1">
          <mxGeometry x="409" y="336" width="40" height="30" as="geometry" />
        </mxCell>
        <mxCell id="hedq3-TFcKwDfqbu5vDN-19" value="" style="endArrow=classic;html=1;rounded=0;" edge="1" parent="1">
          <mxGeometry width="50" height="50" relative="1" as="geometry">
            <mxPoint x="435.66999999999996" y="451" as="sourcePoint" />
            <mxPoint x="436" y="496" as="targetPoint" />
          </mxGeometry>
        </mxCell>
        <mxCell id="hedq3-TFcKwDfqbu5vDN-20" value="&lt;h1&gt;&lt;font style=&quot;font-size: 10px;&quot;&gt;YES&lt;/font&gt;&lt;/h1&gt;" style="text;html=1;strokeColor=none;fillColor=none;spacing=5;spacingTop=-20;whiteSpace=wrap;overflow=hidden;rounded=0;" vertex="1" parent="1">
          <mxGeometry x="409" y="555" width="40" height="30" as="geometry" />
        </mxCell>
        <mxCell id="hedq3-TFcKwDfqbu5vDN-21" value="" style="endArrow=classic;html=1;rounded=0;" edge="1" parent="1">
          <mxGeometry width="50" height="50" relative="1" as="geometry">
            <mxPoint x="434.66999999999996" y="555" as="sourcePoint" />
            <mxPoint x="435" y="600" as="targetPoint" />
          </mxGeometry>
        </mxCell>
        <mxCell id="hedq3-TFcKwDfqbu5vDN-22" value="" style="endArrow=classic;html=1;rounded=0;" edge="1" parent="1">
          <mxGeometry width="50" height="50" relative="1" as="geometry">
            <mxPoint x="434.66999999999996" y="657" as="sourcePoint" />
            <mxPoint x="435" y="702" as="targetPoint" />
          </mxGeometry>
        </mxCell>
        <mxCell id="hedq3-TFcKwDfqbu5vDN-23" value="&lt;h1&gt;&lt;font style=&quot;font-size: 10px;&quot;&gt;YES&lt;/font&gt;&lt;/h1&gt;" style="text;html=1;strokeColor=none;fillColor=none;spacing=5;spacingTop=-20;whiteSpace=wrap;overflow=hidden;rounded=0;" vertex="1" parent="1">
          <mxGeometry x="410" y="790" width="40" height="30" as="geometry" />
        </mxCell>
        <mxCell id="hedq3-TFcKwDfqbu5vDN-24" value="" style="endArrow=classic;html=1;rounded=0;" edge="1" parent="1">
          <mxGeometry width="50" height="50" relative="1" as="geometry">
            <mxPoint x="435.66999999999996" y="790" as="sourcePoint" />
            <mxPoint x="436" y="835" as="targetPoint" />
          </mxGeometry>
        </mxCell>
        <mxCell id="hedq3-TFcKwDfqbu5vDN-25" value="&lt;h1&gt;&lt;font style=&quot;font-size: 10px;&quot;&gt;YES&lt;/font&gt;&lt;/h1&gt;" style="text;html=1;strokeColor=none;fillColor=none;spacing=5;spacingTop=-20;whiteSpace=wrap;overflow=hidden;rounded=0;" vertex="1" parent="1">
          <mxGeometry x="408" y="890" width="40" height="30" as="geometry" />
        </mxCell>
        <mxCell id="hedq3-TFcKwDfqbu5vDN-26" value="" style="endArrow=classic;html=1;rounded=0;" edge="1" parent="1">
          <mxGeometry width="50" height="50" relative="1" as="geometry">
            <mxPoint x="434.66999999999996" y="890" as="sourcePoint" />
            <mxPoint x="435" y="935" as="targetPoint" />
          </mxGeometry>
        </mxCell>
        <mxCell id="hedq3-TFcKwDfqbu5vDN-30" value="" style="endArrow=classic;html=1;rounded=0;exitX=0.472;exitY=1.021;exitDx=0;exitDy=0;exitPerimeter=0;" edge="1" parent="1" source="hedq3-TFcKwDfqbu5vDN-2">
          <mxGeometry width="50" height="50" relative="1" as="geometry">
            <mxPoint x="380" y="1070" as="sourcePoint" />
            <mxPoint x="436" y="1030" as="targetPoint" />
          </mxGeometry>
        </mxCell>
        <mxCell id="hedq3-TFcKwDfqbu5vDN-33" value="&lt;h1&gt;&lt;font style=&quot;font-size: 10px;&quot;&gt;YES&lt;/font&gt;&lt;/h1&gt;" style="text;html=1;strokeColor=none;fillColor=none;spacing=5;spacingTop=-20;whiteSpace=wrap;overflow=hidden;rounded=0;" vertex="1" parent="1">
          <mxGeometry x="410" y="1089" width="40" height="30" as="geometry" />
        </mxCell>
        <mxCell id="hedq3-TFcKwDfqbu5vDN-34" value="" style="endArrow=classic;html=1;rounded=0;" edge="1" parent="1">
          <mxGeometry width="50" height="50" relative="1" as="geometry">
            <mxPoint x="436.66999999999996" y="1089" as="sourcePoint" />
            <mxPoint x="437" y="1134" as="targetPoint" />
          </mxGeometry>
        </mxCell>
        <mxCell id="hedq3-TFcKwDfqbu5vDN-35" value="&lt;h1&gt;&lt;font style=&quot;font-size: 10px;&quot;&gt;YES&lt;/font&gt;&lt;/h1&gt;" style="text;html=1;strokeColor=none;fillColor=none;spacing=5;spacingTop=-20;whiteSpace=wrap;overflow=hidden;rounded=0;" vertex="1" parent="1">
          <mxGeometry x="410" y="1190" width="40" height="30" as="geometry" />
        </mxCell>
        <mxCell id="hedq3-TFcKwDfqbu5vDN-36" value="" style="endArrow=classic;html=1;rounded=0;" edge="1" parent="1">
          <mxGeometry width="50" height="50" relative="1" as="geometry">
            <mxPoint x="436.66999999999996" y="1190" as="sourcePoint" />
            <mxPoint x="437" y="1235" as="targetPoint" />
          </mxGeometry>
        </mxCell>
        <mxCell id="hedq3-TFcKwDfqbu5vDN-38" value="" style="endArrow=classic;html=1;rounded=0;" edge="1" parent="1">
          <mxGeometry width="50" height="50" relative="1" as="geometry">
            <mxPoint x="436.66999999999996" y="1288" as="sourcePoint" />
            <mxPoint x="437" y="1333" as="targetPoint" />
          </mxGeometry>
        </mxCell>
        <mxCell id="hedq3-TFcKwDfqbu5vDN-40" value="Is red state?" style="ellipse;whiteSpace=wrap;html=1;" vertex="1" parent="1">
          <mxGeometry x="387.5" y="1340" width="105" height="50" as="geometry" />
        </mxCell>
        <mxCell id="hedq3-TFcKwDfqbu5vDN-42" value="" style="endArrow=classic;html=1;rounded=0;" edge="1" parent="1">
          <mxGeometry width="50" height="50" relative="1" as="geometry">
            <mxPoint x="435.66999999999996" y="1390" as="sourcePoint" />
            <mxPoint x="436" y="1435" as="targetPoint" />
          </mxGeometry>
        </mxCell>
        <mxCell id="hedq3-TFcKwDfqbu5vDN-45" value="Is red duration determined?" style="ellipse;whiteSpace=wrap;html=1;" vertex="1" parent="1">
          <mxGeometry x="390" y="1440" width="105" height="50" as="geometry" />
        </mxCell>
        <mxCell id="hedq3-TFcKwDfqbu5vDN-46" value="&lt;h1&gt;&lt;font style=&quot;font-size: 10px;&quot;&gt;YES&lt;/font&gt;&lt;/h1&gt;" style="text;html=1;strokeColor=none;fillColor=none;spacing=5;spacingTop=-20;whiteSpace=wrap;overflow=hidden;rounded=0;" vertex="1" parent="1">
          <mxGeometry x="408" y="1390" width="40" height="30" as="geometry" />
        </mxCell>
        <mxCell id="hedq3-TFcKwDfqbu5vDN-47" value="" style="endArrow=classic;html=1;rounded=0;" edge="1" parent="1">
          <mxGeometry width="50" height="50" relative="1" as="geometry">
            <mxPoint x="434.66999999999996" y="1490" as="sourcePoint" />
            <mxPoint x="435" y="1535" as="targetPoint" />
          </mxGeometry>
        </mxCell>
        <mxCell id="hedq3-TFcKwDfqbu5vDN-48" value="&lt;h1&gt;&lt;font style=&quot;font-size: 10px;&quot;&gt;YES&lt;/font&gt;&lt;/h1&gt;" style="text;html=1;strokeColor=none;fillColor=none;spacing=5;spacingTop=-20;whiteSpace=wrap;overflow=hidden;rounded=0;" vertex="1" parent="1">
          <mxGeometry x="408" y="1490" width="40" height="30" as="geometry" />
        </mxCell>
        <mxCell id="hedq3-TFcKwDfqbu5vDN-50" value="" style="endArrow=classic;html=1;rounded=0;" edge="1" parent="1">
          <mxGeometry width="50" height="50" relative="1" as="geometry">
            <mxPoint x="434.66999999999996" y="1600" as="sourcePoint" />
            <mxPoint x="435" y="1645" as="targetPoint" />
          </mxGeometry>
        </mxCell>
        <mxCell id="hedq3-TFcKwDfqbu5vDN-51" value="" style="endArrow=classic;html=1;rounded=0;" edge="1" parent="1">
          <mxGeometry width="50" height="50" relative="1" as="geometry">
            <mxPoint x="434.66999999999996" y="1710" as="sourcePoint" />
            <mxPoint x="435" y="1755" as="targetPoint" />
          </mxGeometry>
        </mxCell>
        <mxCell id="hedq3-TFcKwDfqbu5vDN-55" value="Amber state elapsed?" style="ellipse;whiteSpace=wrap;html=1;" vertex="1" parent="1">
          <mxGeometry x="387.5" y="1140" width="105" height="50" as="geometry" />
        </mxCell>
        <mxCell id="hedq3-TFcKwDfqbu5vDN-56" value="Current state amber?" style="ellipse;whiteSpace=wrap;html=1;" vertex="1" parent="1">
          <mxGeometry x="382.5" y="1039" width="105" height="50" as="geometry" />
        </mxCell>
        <mxCell id="hedq3-TFcKwDfqbu5vDN-57" value="Green time elapsed?" style="ellipse;whiteSpace=wrap;html=1;" vertex="1" parent="1">
          <mxGeometry x="382.5" y="840" width="105" height="50" as="geometry" />
        </mxCell>
      </root>
    </mxGraphModel>
  </diagram>
</mxfile>
